# xmcd
#
# Track frame offsets:
#	150
#	13046
#	26069
#	46403
#	69989
#
# Disc length: 1248 seconds
#
# Revision: 0
# Processed by: cddbd v1.5.1PL0 Copyright (c) Steve Scherf et al.
# Submitted via: dBpowerAMP V4.0
#
DISCID=3904de05
DTITLE=Dead Pan Rangers - Not Much Less Further Than Last Time
DYEAR=2005
DGENRE=Indie
TTITLE0=Yo La Ranger
TTITLE1=Jane Cave Lane
TTITLE2=You Know This One
TTITLE3=California Dream
TTITLE4=You'll Love A Lad Insane
EXTD=
EXTT0=
EXTT1=
EXTT2=
EXTT3=
EXTT4=
PLAYORDER=
